<?xml version="1.0" encoding="UTF-8"?>
<svg id="svg2" xmlns="http://www.w3.org/2000/svg" xmlns:svg="http://www.w3.org/2000/svg" xmlns:sodipodi="http://sodipodi.sourceforge.net/DTD/sodipodi-0.dtd" xmlns:inkscape="http://www.inkscape.org/namespaces/inkscape" version="1.1" viewBox="0 0 3200 3200">
  <defs>
    <style>
      .cls-1 {
        fill: #721601;
      }

      .cls-1, .cls-2, .cls-3, .cls-4, .cls-5, .cls-6, .cls-7, .cls-8, .cls-9, .cls-10, .cls-11, .cls-12, .cls-13 {
        stroke-width: 0px;
      }

      .cls-2 {
        fill: #cd9443;
      }

      .cls-3 {
        fill: #e1a03b;
      }

      .cls-4 {
        fill: #edd4ae;
      }

      .cls-5 {
        fill: #711501;
      }

      .cls-6 {
        fill: #b76c01;
      }

      .cls-7 {
        fill: #eecb96;
      }

      .cls-8 {
        fill: #711500;
      }

      .cls-9 {
        fill: #c47e19;
      }

      .cls-10 {
        fill: #f0cf9d;
      }

      .cls-11 {
        fill: #dbb175;
      }

      .cls-12 {
        fill: #ebc07e;
      }

      .cls-13 {
        fill: #d8aa68;
      }
    </style>
  </defs>
  <sodipodi:namedview id="namedview4" bordercolor="#000000" borderopacity="0.25" inkscape:deskcolor="#d1d1d1" inkscape:pagecheckerboard="0" inkscape:pageopacity="0.0" inkscape:showpageshadow="2" pagecolor="#ffffff"/>
  <g id="g8" inkscape:groupmode="layer" inkscape:label="ink_ext_XXXXXX">
    <g id="g10">
      <path id="path14" class="cls-3" d="M916.6,858.8c0-29.3-23.3-53-51.9-52.9-26.4,0-43.6,18.2-43.8,46.2-.2,30.4,20.8,52.8,49.5,52.9,26.6,0,46.2-19.6,46.1-46.2h0ZM662.5,2206.3c.3,22.9,10.6,38.5,29,48.7,19.8,11,40.2,13.3,60.7,1.7,17.1-9.6,27.4-30.7,24.4-49.4-3.3-21.2-17.8-41.1-36.4-42.6-18.7-1.5-38.5-.2-56.4,4.9-16.5,4.7-20.4,21.7-21.3,36.7h0ZM1983.5,910.1c-.2-28.1-16.3-52.2-40.3-60.1-24.5-8.1-46,.4-64.3,24.7-2.2,3-6,4.9-9.2,7-31.2,20.9-46.7,68.5-2.1,94.8,24.9,14.7,51.2,14.3,76.1-.2,24.9-14.6,39.6-36.3,39.7-66.3h.1ZM2009.6,1608c-35.7,0-65.2,19.6-75.2,50.4-9.2,28.3,6.3,79.9,30.2,96.5,26.6,18.5,55.5,26.5,86.1,10.3,25.4-13.4,32.6-38.2,36.9-64.3,8.5-51.2-26.4-92.8-78.1-93h.1ZM751.9,1715c8.7-1.5,26-3.3,42.6-7.6,43.9-11.4,67.4-48.2,60.3-92.8-7.6-47.7-64.3-79.1-105.5-59.2-9.5,4.6-20.6,7-31.2,7.6-26.5,1.4-47.4,16.4-49.8,42.5-1.6,17.6,1.4,36.1,5,53.7,7.5,37.1,32.1,55.9,78.6,55.9h0ZM1814.6,2612c0-.4,0-.7.1-1.1,3.1,0,6.2.1,9.3,0,35.3-1.5,63.4-23.3,76.1-59,11.9-33.5,4.7-64.5-22.5-86.7-27.8-22.8-60.7-31.8-96.1-26-50.1,8.2-79.6,59-58.2,98.8,1.5,2.8,1.2,6.9.9,10.3-3.1,32.2,10.7,51.5,42.8,57.8,15.6,3,31.6,4.1,47.5,6h0ZM1604.3,1651.1c0-47.3-22.9-80.5-64.4-93.5-43.4-13.6-87.8,1.1-113.3,37.5-17.7,25.3-17.1,53.3,1.7,77.7,2.7,3.5,6.6,6.8,7.4,10.8,9.2,44.4,61.1,59.8,94.5,57.3,45.7-3.4,74-38.8,74.1-89.7h0ZM2289.7,2186.8c-1.8-25.9-6.5-50-19.1-72.3-18.7-33-57.9-50.4-100.7-44.8-31.7,4.1-56.6,27.5-64.8,65.4-4.4,20.1-4.1,41.3-5.1,62-.8,17.3,5.8,32.2,17.9,44.4,23.3,23.7,52.3,37,84.6,41.3,36.3,4.9,63.3-11.1,75.9-44.6,6.1-16.3,7.8-34.2,11.4-51.4h0ZM1282.8,397.9c-15.4,2.5-39,1.7-54.3,19.1-14.5,16.4-26.5,35.5-37,54.9-11,20.4-11.2,42.9-1.1,64.3,14.4,30.3,35.8,55.3,64.1,73.1,26.9,16.9,54.9,14.2,79.6-5,35.4-27.5,55.6-64.7,58.6-109.3,3.7-57.1-39.6-96.6-110-97.1h0ZM2248.4,464.9c-25.7,0-47.4,7.4-68.4,22.2-20.9,14.7-31.4,36.6-43.4,57.9-24.7,43.9-15.1,85.3,27.4,112.7,26.2,16.9,55,27.2,85.9,29.8,94.9,7.9,149-71.9,118.5-150.5-17.5-45.3-62.6-72.1-120-72.1h0ZM1314.2,2296.4c8.9,0,17.8.5,26.6,0,40-2.6,70.2-26,77.9-62.8,3.2-15.3,3.9-32,1.3-47.3-7.1-40.9-17.5-80.9-49.2-111.1-34-32.5-86.8-41.2-121.5-20.1-15,9.1-69.2,81.5-73.8,98.5-.3,1.3-.6,2.6-.8,3.9-6,38.8,7.4,71.8,32,100.5,28.2,32.9,66.5,40.1,107.5,38.5h0ZM2703.9,2056.8c33.8,0,97.4-26,125.2-53.6,17.3-17.2,28.6-37.7,28.4-62.6-.4-50.4-28.7-84.4-69.8-107.3-41.2-22.9-84.2-22.6-125.2,3.3-16.1,10.2-31.6,21.2-47.3,32-20.5,14.2-31.7,33.6-30.1,58.8,2.4,38.3,18.8,70.9,43.5,99.3,18.2,20.9,42.1,30.5,75.3,30h0ZM2579.5,1331.7c15.8-5.2,32.5-8.6,47.3-15.8,32.7-16.1,56.2-43.2,77.2-71.9,35.8-49,22.2-103.9-33.2-128.8-30.9-14-63.7-25.4-96.9-32.3-21.8-4.5-47-11.9-68.6,1.6-16.7,10.5-32.4,23.5-45.8,37.9-27,29.1-30.7,63.7-10.1,96.9,17.8,28.7,39.6,55.5,62.4,80.6,17,18.7,40.4,28.5,67.7,31.9h0ZM569.4,1208.5c0-7.5.4-15.1,0-22.6-4-71.4-55.9-111.1-126.2-96.7-2.8.6-5.9-.4-8.9-.3-16.5.5-34.3-2.8-49.1,2.5-19.6,7.1-36.9,20.8-55,31.8-46.3,28.1-56.5,70.2-45.7,120,14.2,65.6,79.9,120.8,142.3,119.9,84.1-1.3,143.1-65,142.6-154.6h0ZM1337.1,1409.1c36.6,0,84.4-16.5,115.5-39.5,22.6-16.7,37.4-38.7,44.9-65.7,16.6-59.9-15.9-147.9-67.8-181.8-31.5-20.6-65.8-26-101.9-14.3-39,12.6-102.7,84.1-110.4,124.5-8.3,43.7,4.4,83.7,25,121.3,20.2,36.9,52.3,55.6,94.7,55.6h0ZM196.3,1269.9c5.4-101.6,34.6-195.9,90.7-280.8,72.1-109,140.7-220,204.8-334,47-83.5,115.6-146.7,197.6-195.9,12.7-7.6,23.7-18.2,35.4-27.6,43.9-35.3,86.3-72.8,131.9-105.6,58.4-42,117.8-83,179.7-119.4,97.3-57.1,205.1-86.5,315.2-106.9,46.5-8.6,93.7-12.8,140.7-19,3.5,0,7.1-.2,10.7-.3h122.7c4.5,0,8.9.2,13.3.2,42.7,1.7,85.3,3.3,128,5,2.7,0,5.3.2,8,.3,65.8,2.1,128.9,19.1,191.8,36.4,109.6,30.1,212.6,74.7,307,138.6,56.6,38.3,119.8,63.7,182.9,89.1,70.5,28.4,137.1,63,189.4,120.5,42.4,46.7,74.2,100.3,96.6,158.4,39.6,102.6,98.3,193.6,160.8,282.9,21.9,31.2,41.1,64.3,60.7,97.1,25.8,43.3,37.3,90.9,40.1,140.8,0,1.8.1,3.6.2,5.3.6,65.8,1.2,131.7,1.8,197.5-1.5,3.6-3,7.2-4.5,10.7-.9,42.4-2.2,84.9-2.6,127.3-.5,51.8-.2,103.6-.1,155.5,0,5.1,1.4,10.3,2.1,15.5.1,19.6.3,39.3.4,58.9v37.3c-.9,18.7-1.9,37.4-2.8,56.1-7.4,29.1-13.4,58.6-22.5,87.2-21.9,69.2-51.4,135.5-88.5,197.7-32.2,54-66.7,106.9-104.2,157.3-50,67.1-104.5,130.9-156.1,196.9-38.6,49.4-78.2,97.7-127.5,137-67.1,53.3-143.3,90.3-222,122.1-82.2,33.3-166.3,62.2-247.7,97.4-127.8,55.3-261.6,82.5-399.5,91.8-67.7,4.5-134.7-3.1-200.3-19.9-79.4-20.4-158.3-43.1-238-62.2-129.3-30.9-254.3-72.1-369.4-140.1-74-43.7-140.8-96.5-194.7-163.6-78.3-97.4-155.1-196-231.4-295.1-42.2-54.8-79.5-113.5-94.2-181.9-14.5-67.3-25.5-135.7-33.4-204.1-9.6-82.4-25.2-163.5-42.6-244.5-10.5-48.8-16.8-98.5-25-147.8-1.5-4.2-3-8.4-4.6-12.7-.5-19.8-1.3-39.6-1.3-59.4,0-31.7.3-63.4.5-95.1,0-1.8,0-3.6.2-5.3"/>
      <path id="path16" class="cls-6" d="M201.5,1442.4c8.2,49.3,14.5,99,25,147.8,17.4,81,33,162,42.6,244.5,8,68.4,18.9,136.8,33.4,204.1,14.7,68.4,52,127.1,94.2,181.9,76.3,99,153.1,197.6,231.4,295.1,53.9,67.1,120.7,119.9,194.7,163.6,115.1,68,240.1,109.2,369.4,140.1,79.7,19.1,158.6,41.8,238,62.2,65.7,16.9,132.7,24.5,200.3,19.9,138-9.3,271.7-36.5,399.5-91.8,81.4-35.2,165.4-64.1,247.7-97.4,78.7-31.9,155-68.8,222-122.1,49.4-39.3,89-87.5,127.5-137,51.5-66,106-129.8,156.1-196.9,37.5-50.4,72-103.3,104.2-157.3,37.1-62.2,66.7-128.5,88.5-197.7,9-28.6,15.1-58.1,22.5-87.2.6,47.9,3.8,96,1.2,143.8-4.2,78.8-30.9,152-63.7,223.1-48,104.2-107.6,201-181.8,288.9-43.8,51.9-86.9,104.7-126.5,159.8-77.7,108.1-177.8,186.9-300.2,237.3-111.2,45.8-222.8,90.8-335.4,133.2-55.4,20.9-112.6,39.1-170.5,51.1-63.3,13.2-128.1,20.1-192.6,25.9-100.8,9.2-197-16.8-293-43.1-80.5-22-162.2-39.5-242-63.5-155.8-46.7-302.1-112.4-420.4-228.5-20.2-19.9-39.1-41.3-56.7-63.6-71.5-90.1-142.2-180.9-213.2-271.4-58.2-74.2-100.8-155.7-116.2-249.7-5.2-31.9-9.2-64.1-13.6-96.1-1.2-8.7-1.9-17.4-2.9-26.1,0-1.8-.3-3.6-.4-5.3-10.9-113.4-37.6-223.8-59.9-335.1-14.7-73.7-19.9-149.3-16.1-224.9.4-8.9,1-17.7,1.5-26.6,1.7-.3,3.5-.6,5.2-.9"/>
      <path id="path18" class="cls-9" d="M3001.1,1661.7c-.7-5.2-2.1-10.3-2.1-15.5-.1-51.8-.3-103.6.1-155.5.4-42.4,1.7-84.9,2.6-127.3,1.6,13.2,3.2,26.5,4.8,39.7-1.8,86.1-3.6,172.3-5.4,258.5"/>
      <path id="path20" class="cls-4" d="M3001.4,1757.9v-37.3,37.3"/>
      <path id="path22" class="cls-2" d="M3006.5,1403.3c-1.6-13.3-3.2-26.5-4.8-39.7,1.5-3.6,3-7.2,4.5-10.7.1,16.8.2,33.7.4,50.5"/>
      <path id="path24" class="cls-10" d="M1638.9,80.7c-4.5,0-8.9-.2-13.3-.2,4.5,0,8.9.2,13.3.2"/>
      <path id="path26" class="cls-13" d="M201.5,1442.4c-1.7.3-3.5.6-5.2.9.2-4.5.4-9.1.6-13.6,1.5,4.2,3,8.4,4.6,12.7"/>
      <path id="path28" class="cls-10" d="M1502.9,80.4c-3.6,0-7.1.2-10.7.3,3.5,0,7.1-.2,10.7-.3"/>
      <path id="path30" class="cls-12" d="M1774.9,86c-2.7,0-5.3-.2-8-.3,2.7,0,5.3.2,8,.3"/>
      <path id="path32" class="cls-7" d="M3004.4,1155.3c0-1.8-.1-3.6-.2-5.3,0,1.8.1,3.6.2,5.3"/>
      <path id="path34" class="cls-10" d="M196.3,1269.9c0,1.8,0,3.5-.2,5.3,0-1.8,0-3.6.2-5.3"/>
      <path id="path36" class="cls-11" d="M270.7,2029.9c0,1.8.3,3.6.4,5.3,0-1.8-.3-3.6-.4-5.3"/>
      <path id="path38" class="cls-8" d="M1337.1,1409.1c-42.4,0-74.5-18.7-94.7-55.6-20.6-37.6-33.3-77.7-25-121.3,7.7-40.3,71.4-111.8,110.4-124.5,36.1-11.7,70.4-6.3,101.9,14.3,52,34,84.4,122,67.8,181.8-7.5,27.1-22.3,49-44.9,65.7-31.1,23-78.9,39.4-115.5,39.5"/>
      <path id="path40" class="cls-8" d="M569.4,1208.5c.4,89.6-58.5,153.2-142.6,154.6-62.4,1-128.2-54.3-142.3-119.9-10.8-49.8-.6-91.8,45.7-120,18.1-11,35.4-24.7,55-31.8,14.8-5.3,32.6-2.1,49.1-2.5,3,0,6.1.9,8.9.3,70.3-14.4,122.3,25.3,126.2,96.7.4,7.5,0,15.1,0,22.6"/>
      <path id="path42" class="cls-8" d="M2579.5,1331.7c-27.3-3.4-50.7-13.2-67.7-31.9-22.8-25.1-44.6-51.8-62.4-80.6-20.6-33.1-16.8-67.8,10.1-96.9,13.4-14.4,29.1-27.5,45.8-37.9,21.5-13.5,46.7-6.1,68.6-1.6,33.1,6.8,66,18.3,96.9,32.3,55.4,25,69,79.9,33.2,128.8-21,28.7-44.5,55.9-77.2,71.9-14.8,7.3-31.5,10.7-47.3,15.8"/>
      <path id="path44" class="cls-8" d="M2703.9,2056.8c-33.2.5-57-9.1-75.3-30-24.8-28.4-41.1-61.1-43.5-99.3-1.6-25.2,9.6-44.6,30.1-58.8,15.7-10.8,31.2-21.8,47.3-32,40.9-25.9,84-26.3,125.2-3.3,41.1,22.9,69.5,56.9,69.8,107.3.2,24.9-11.1,45.4-28.4,62.6-27.8,27.6-91.4,53.5-125.2,53.6"/>
      <path id="path46" class="cls-8" d="M1314.2,2296.4c-40.9,1.6-79.3-5.7-107.5-38.5-24.6-28.7-38.1-61.7-32-100.5.2-1.3.4-2.6.8-3.9,4.6-17,58.8-89.4,73.8-98.5,34.7-21.2,87.4-12.4,121.5,20.1,31.7,30.2,42.1,70.2,49.2,111.1,2.6,15.3,1.9,32.1-1.3,47.3-7.7,36.8-37.9,60.2-77.9,62.8-8.8.6-17.7,0-26.6,0"/>
      <path id="path48" class="cls-8" d="M2248.4,464.9c57.4,0,102.5,26.8,120,72.1,30.5,78.6-23.6,158.4-118.5,150.5-30.9-2.6-59.7-12.9-85.9-29.8-42.5-27.4-52.1-68.9-27.4-112.7,12-21.3,22.5-43.2,43.4-57.9,21-14.8,42.7-22.2,68.4-22.2"/>
      <path id="path50" class="cls-8" d="M1282.8,397.9c70.4.5,113.7,39.9,110,97.1-2.9,44.7-23.2,81.8-58.6,109.3-24.7,19.2-52.7,21.9-79.6,5-28.3-17.8-49.7-42.8-64.1-73.1-10.1-21.3-9.9-43.8,1.1-64.3,10.5-19.4,22.5-38.5,37-54.9,15.3-17.3,38.9-16.6,54.3-19.1"/>
      <path id="path52" class="cls-5" d="M2289.7,2186.8c-3.7,17.2-5.3,35.1-11.4,51.4-12.5,33.5-39.6,49.5-75.9,44.6-32.3-4.3-61.3-17.6-84.6-41.3-12-12.3-18.7-27.2-17.9-44.4,1-20.7.8-41.9,5.1-62,8.2-37.9,33.1-61.3,64.8-65.4,42.8-5.6,82,11.8,100.7,44.8,12.6,22.2,17.2,46.4,19.1,72.3"/>
      <path id="path54" class="cls-5" d="M1604.3,1651.1c0,50.9-28.3,86.3-74.1,89.7-33.5,2.5-85.3-12.9-94.5-57.3-.8-3.9-4.8-7.3-7.4-10.8-18.8-24.3-19.5-52.4-1.7-77.7,25.5-36.3,70-51,113.3-37.5,41.5,13,64.4,46.2,64.4,93.5"/>
      <path id="path56" class="cls-8" d="M1814.6,2612c-15.8-1.9-31.9-2.9-47.5-6-32.1-6.2-45.9-25.6-42.8-57.8.3-3.4.6-7.5-.9-10.3-21.5-39.8,8.1-90.6,58.2-98.8,35.4-5.8,68.3,3.2,96.1,26,27.1,22.3,34.3,53.2,22.5,86.7-12.7,35.7-40.8,57.5-76.1,59-3.1.1-6.2,0-9.3,0,0,.4,0,.7-.1,1.1"/>
      <path id="path58" class="cls-5" d="M751.9,1715c-46.5,0-71.1-18.8-78.6-55.9-3.5-17.6-6.6-36.1-5-53.7,2.4-26.1,23.4-41.1,49.8-42.5,10.5-.5,21.7-3,31.2-7.6,41.2-19.9,97.9,11.5,105.5,59.2,7.1,44.6-16.4,81.4-60.3,92.8-16.6,4.3-33.9,6.1-42.6,7.6"/>
      <path id="path60" class="cls-5" d="M2009.6,1608c51.7.1,86.6,41.8,78.1,93-4.3,26.1-11.5,50.9-36.9,64.3-30.7,16.2-59.5,8.2-86.1-10.3-23.8-16.6-39.4-68.3-30.2-96.5,10-30.7,39.4-50.5,75.2-50.4"/>
      <path id="path62" class="cls-5" d="M1983.5,910.1c-.1,29.9-14.8,51.7-39.7,66.3-24.9,14.5-51.2,14.9-76.1.2-44.6-26.3-29.1-73.9,2.1-94.8,3.2-2.1,6.9-4,9.2-7,18.3-24.3,39.8-32.8,64.3-24.7,24,7.9,40.1,31.9,40.3,60.1"/>
      <path id="path64" class="cls-1" d="M662.5,2206.3c.9-15,4.8-32.1,21.3-36.7,17.9-5.1,37.8-6.3,56.4-4.9,18.6,1.5,33.1,21.3,36.4,42.6,2.9,18.8-7.3,39.8-24.4,49.4-20.5,11.5-41,9.2-60.7-1.7-18.4-10.2-28.7-25.8-29-48.7"/>
      <path id="path66" class="cls-1" d="M916.6,858.8c0,26.6-19.6,46.3-46.1,46.2-28.7,0-49.7-22.5-49.5-52.9.2-28,17.4-46.2,43.8-46.2s51.8,23.7,51.9,52.9"/>
    </g>
  </g>
</svg>